<svg xmlns="http://www.w3.org/2000/svg" viewBox="0 0 900 404" font-family="system-ui,sans-serif"><rect width="900" height="404" fill="#fcfcfb"/><text x="60" y="19" font-size="12" fill="#0b0b0b" font-weight="600">6-second window — track 066 A (buried entrance under the outgoing record) in d336-355</text><line x1="60" x2="885" y1="188.0" y2="188.0" stroke="#e1e0d9"/><text x="54" y="192.0" text-anchor="end" font-size="10" fill="#52514e">1</text><line x1="60" x2="885" y1="139.8" y2="139.8" stroke="#e1e0d9"/><text x="54" y="143.8" text-anchor="end" font-size="10" fill="#52514e">10^2</text><line x1="60" x2="885" y1="91.7" y2="91.7" stroke="#e1e0d9"/><text x="54" y="95.7" text-anchor="end" font-size="10" fill="#52514e">10^4</text><line x1="60" x2="885" y1="43.5" y2="43.5" stroke="#e1e0d9"/><text x="54" y="47.5" text-anchor="end" font-size="10" fill="#52514e">10^6</text><rect x="328.1" y="153.1" width="3.6" height="34.9" fill="#2a78d6"/><rect x="332.2" y="157.8" width="3.6" height="30.2" fill="#2a78d6"/><rect x="336.4" y="155.2" width="3.6" height="32.8" fill="#2a78d6"/><rect x="340.5" y="154.8" width="3.6" height="33.2" fill="#2a78d6"/><rect x="344.6" y="157.8" width="3.6" height="30.2" fill="#2a78d6"/><rect x="348.8" y="152.8" width="3.6" height="35.2" fill="#2a78d6"/><rect x="352.9" y="151.1" width="3.6" height="36.9" fill="#2a78d6"/><rect x="357.0" y="156.2" width="3.6" height="31.8" fill="#2a78d6"/><rect x="361.1" y="153.1" width="3.6" height="34.9" fill="#2a78d6"/><rect x="365.2" y="155.2" width="3.6" height="32.8" fill="#2a78d6"/><rect x="369.4" y="150.5" width="3.6" height="37.5" fill="#2a78d6"/><rect x="373.5" y="143.6" width="3.6" height="44.4" fill="#2a78d6"/><rect x="377.6" y="145.9" width="3.6" height="42.1" fill="#2a78d6"/><rect x="381.8" y="147.7" width="3.6" height="40.3" fill="#2a78d6"/><rect x="385.9" y="147.5" width="3.6" height="40.5" fill="#2a78d6"/><rect x="390.0" y="146.5" width="3.6" height="41.5" fill="#2a78d6"/><rect x="394.1" y="150.5" width="3.6" height="37.5" fill="#2a78d6"/><rect x="398.2" y="148.2" width="3.6" height="39.8" fill="#2a78d6"/><rect x="402.4" y="150.5" width="3.6" height="37.5" fill="#2a78d6"/><rect x="406.5" y="149.2" width="3.6" height="38.8" fill="#2a78d6"/><rect x="410.6" y="148.0" width="3.6" height="40.0" fill="#2a78d6"/><rect x="414.8" y="148.2" width="3.6" height="39.8" fill="#2a78d6"/><rect x="418.9" y="149.7" width="3.6" height="38.3" fill="#2a78d6"/><rect x="423.0" y="143.7" width="3.6" height="44.3" fill="#2a78d6"/><rect x="427.1" y="144.8" width="3.6" height="43.2" fill="#2a78d6"/><rect x="431.2" y="143.3" width="3.6" height="44.7" fill="#2a78d6"/><rect x="435.4" y="141.1" width="3.6" height="46.9" fill="#2a78d6"/><rect x="439.5" y="138.2" width="3.6" height="49.8" fill="#2a78d6"/><rect x="443.6" y="136.1" width="3.6" height="51.9" fill="#2a78d6"/><rect x="447.8" y="134.5" width="3.6" height="53.5" fill="#2a78d6"/><rect x="451.9" y="134.8" width="3.6" height="53.2" fill="#2a78d6"/><rect x="456.0" y="134.1" width="3.6" height="53.9" fill="#2a78d6"/><rect x="460.1" y="133.6" width="3.6" height="54.4" fill="#2a78d6"/><rect x="464.2" y="132.4" width="3.6" height="55.6" fill="#2a78d6"/><rect x="468.4" y="132.7" width="3.6" height="55.3" fill="#2a78d6"/><rect x="472.5" y="128.2" width="3.6" height="59.8" fill="#2a78d6"/><rect x="476.6" y="126.9" width="3.6" height="61.1" fill="#2a78d6"/><rect x="480.8" y="128.0" width="3.6" height="60.0" fill="#2a78d6"/><rect x="484.9" y="126.9" width="3.6" height="61.1" fill="#2a78d6"/><rect x="489.0" y="125.8" width="3.6" height="62.2" fill="#2a78d6"/><rect x="493.1" y="122.9" width="3.6" height="65.1" fill="#2a78d6"/><rect x="497.2" y="118.5" width="3.6" height="69.5" fill="#2a78d6"/><rect x="501.4" y="118.7" width="3.6" height="69.3" fill="#2a78d6"/><rect x="505.5" y="117.8" width="3.6" height="70.2" fill="#2a78d6"/><rect x="509.6" y="116.4" width="3.6" height="71.6" fill="#2a78d6"/><rect x="513.8" y="116.1" width="3.6" height="71.9" fill="#2a78d6"/><rect x="517.9" y="114.7" width="3.6" height="73.3" fill="#2a78d6"/><rect x="522.0" y="112.4" width="3.6" height="75.6" fill="#2a78d6"/><rect x="526.1" y="110.9" width="3.6" height="77.1" fill="#2a78d6"/><rect x="530.2" y="108.6" width="3.6" height="79.4" fill="#2a78d6"/><rect x="534.4" y="106.2" width="3.6" height="81.8" fill="#2a78d6"/><rect x="538.5" y="103.9" width="3.6" height="84.1" fill="#2a78d6"/><rect x="542.6" y="103.3" width="3.6" height="84.7" fill="#2a78d6"/><rect x="546.8" y="101.6" width="3.6" height="86.4" fill="#2a78d6"/><rect x="550.9" y="98.7" width="3.6" height="89.3" fill="#2a78d6"/><rect x="555.0" y="96.7" width="3.6" height="91.3" fill="#2a78d6"/><rect x="559.1" y="94.8" width="3.6" height="93.2" fill="#2a78d6"/><rect x="563.2" y="92.5" width="3.6" height="95.5" fill="#2a78d6"/><rect x="567.4" y="90.8" width="3.6" height="97.2" fill="#2a78d6"/><rect x="571.5" y="88.3" width="3.6" height="99.7" fill="#2a78d6"/><rect x="575.6" y="86.1" width="3.6" height="101.9" fill="#2a78d6"/><rect x="579.8" y="84.0" width="3.6" height="104.0" fill="#2a78d6"/><rect x="583.9" y="81.7" width="3.6" height="106.3" fill="#2a78d6"/><rect x="588.0" y="79.5" width="3.6" height="108.5" fill="#2a78d6"/><rect x="592.1" y="77.3" width="3.6" height="110.7" fill="#2a78d6"/><rect x="596.2" y="75.2" width="3.6" height="112.8" fill="#2a78d6"/><rect x="600.4" y="72.6" width="3.6" height="115.4" fill="#2a78d6"/><rect x="604.5" y="69.9" width="3.6" height="118.1" fill="#2a78d6"/><rect x="608.6" y="66.0" width="3.6" height="122.0" fill="#2a78d6"/><rect x="612.8" y="61.4" width="3.6" height="126.6" fill="#2a78d6"/><rect x="616.9" y="56.5" width="3.6" height="131.5" fill="#2a78d6"/><rect x="621.0" y="51.1" width="3.6" height="136.9" fill="#2a78d6"/><rect x="625.1" y="45.2" width="3.6" height="142.8" fill="#2a78d6"/><rect x="629.2" y="38.9" width="3.6" height="149.1" fill="#2a78d6"/><rect x="633.4" y="31.9" width="3.6" height="156.1" fill="#2a78d6"/><rect x="637.5" y="24.0" width="3.6" height="164.0" fill="#2a78d6"/><rect x="641.6" y="24.9" width="3.6" height="163.1" fill="#2a78d6"/><line x1="60" x2="885" y1="188" y2="188" stroke="#c3c2b7"/><text x="60" y="211" font-size="12" fill="#0b0b0b" font-weight="600">0.6-second window</text><line x1="60" x2="885" y1="380.0" y2="380.0" stroke="#e1e0d9"/><text x="54" y="384.0" text-anchor="end" font-size="10" fill="#52514e">1</text><line x1="60" x2="885" y1="331.3" y2="331.3" stroke="#e1e0d9"/><text x="54" y="335.3" text-anchor="end" font-size="10" fill="#52514e">10^2</text><line x1="60" x2="885" y1="282.7" y2="282.7" stroke="#e1e0d9"/><text x="54" y="286.7" text-anchor="end" font-size="10" fill="#52514e">10^4</text><line x1="60" x2="885" y1="234.0" y2="234.0" stroke="#e1e0d9"/><text x="54" y="238.0" text-anchor="end" font-size="10" fill="#52514e">10^6</text><rect x="196.1" y="361.1" width="3.6" height="18.9" fill="#eb6834"/><rect x="200.2" y="372.7" width="3.6" height="7.3" fill="#eb6834"/><rect x="204.4" y="372.7" width="3.6" height="7.3" fill="#eb6834"/><rect x="208.5" y="380.0" width="3.6" height="0.0" fill="#eb6834"/><rect x="212.6" y="365.4" width="3.6" height="14.6" fill="#eb6834"/><rect x="216.8" y="361.1" width="3.6" height="18.9" fill="#eb6834"/><rect x="220.9" y="356.8" width="3.6" height="23.2" fill="#eb6834"/><rect x="225.0" y="363.0" width="3.6" height="17.0" fill="#eb6834"/><rect x="229.1" y="363.0" width="3.6" height="17.0" fill="#eb6834"/><rect x="233.2" y="365.4" width="3.6" height="14.6" fill="#eb6834"/><rect x="237.4" y="363.0" width="3.6" height="17.0" fill="#eb6834"/><rect x="241.5" y="356.8" width="3.6" height="23.2" fill="#eb6834"/><rect x="245.6" y="358.0" width="3.6" height="22.0" fill="#eb6834"/><rect x="249.8" y="363.0" width="3.6" height="17.0" fill="#eb6834"/><rect x="253.9" y="358.0" width="3.6" height="22.0" fill="#eb6834"/><rect x="258.0" y="350.7" width="3.6" height="29.3" fill="#eb6834"/><rect x="262.1" y="348.4" width="3.6" height="31.6" fill="#eb6834"/><rect x="266.2" y="347.3" width="3.6" height="32.7" fill="#eb6834"/><rect x="270.4" y="343.1" width="3.6" height="36.9" fill="#eb6834"/><rect x="274.5" y="341.9" width="3.6" height="38.1" fill="#eb6834"/><rect x="278.6" y="342.1" width="3.6" height="37.9" fill="#eb6834"/><rect x="282.8" y="339.6" width="3.6" height="40.4" fill="#eb6834"/><rect x="286.9" y="341.9" width="3.6" height="38.1" fill="#eb6834"/><rect x="291.0" y="340.0" width="3.6" height="40.0" fill="#eb6834"/><rect x="295.1" y="342.7" width="3.6" height="37.3" fill="#eb6834"/><rect x="299.2" y="340.3" width="3.6" height="39.7" fill="#eb6834"/><rect x="303.4" y="337.7" width="3.6" height="42.3" fill="#eb6834"/><rect x="307.5" y="334.8" width="3.6" height="45.2" fill="#eb6834"/><rect x="311.6" y="337.3" width="3.6" height="42.7" fill="#eb6834"/><rect x="315.8" y="336.7" width="3.6" height="43.3" fill="#eb6834"/><rect x="319.9" y="335.9" width="3.6" height="44.1" fill="#eb6834"/><rect x="324.0" y="333.4" width="3.6" height="46.6" fill="#eb6834"/><rect x="328.1" y="333.2" width="3.6" height="46.8" fill="#eb6834"/><rect x="332.2" y="335.4" width="3.6" height="44.6" fill="#eb6834"/><rect x="336.4" y="334.2" width="3.6" height="45.8" fill="#eb6834"/><rect x="340.5" y="333.7" width="3.6" height="46.3" fill="#eb6834"/><rect x="344.6" y="331.8" width="3.6" height="48.2" fill="#eb6834"/><rect x="348.8" y="334.0" width="3.6" height="46.0" fill="#eb6834"/><rect x="352.9" y="333.8" width="3.6" height="46.2" fill="#eb6834"/><rect x="357.0" y="327.9" width="3.6" height="52.1" fill="#eb6834"/><rect x="361.1" y="323.6" width="3.6" height="56.4" fill="#eb6834"/><rect x="365.2" y="324.8" width="3.6" height="55.2" fill="#eb6834"/><rect x="369.4" y="321.0" width="3.6" height="59.0" fill="#eb6834"/><rect x="373.5" y="321.8" width="3.6" height="58.2" fill="#eb6834"/><rect x="377.6" y="319.5" width="3.6" height="60.5" fill="#eb6834"/><rect x="381.8" y="319.4" width="3.6" height="60.6" fill="#eb6834"/><rect x="385.9" y="319.4" width="3.6" height="60.6" fill="#eb6834"/><rect x="390.0" y="316.0" width="3.6" height="64.0" fill="#eb6834"/><rect x="394.1" y="314.9" width="3.6" height="65.1" fill="#eb6834"/><rect x="398.2" y="313.3" width="3.6" height="66.7" fill="#eb6834"/><rect x="402.4" y="313.0" width="3.6" height="67.0" fill="#eb6834"/><rect x="406.5" y="312.8" width="3.6" height="67.2" fill="#eb6834"/><rect x="410.6" y="311.2" width="3.6" height="68.8" fill="#eb6834"/><rect x="414.8" y="310.3" width="3.6" height="69.7" fill="#eb6834"/><rect x="418.9" y="310.7" width="3.6" height="69.3" fill="#eb6834"/><rect x="423.0" y="309.6" width="3.6" height="70.4" fill="#eb6834"/><rect x="427.1" y="307.8" width="3.6" height="72.2" fill="#eb6834"/><rect x="431.2" y="307.0" width="3.6" height="73.0" fill="#eb6834"/><rect x="435.4" y="305.6" width="3.6" height="74.4" fill="#eb6834"/><rect x="439.5" y="305.2" width="3.6" height="74.8" fill="#eb6834"/><rect x="443.6" y="304.0" width="3.6" height="76.0" fill="#eb6834"/><rect x="447.8" y="302.7" width="3.6" height="77.3" fill="#eb6834"/><rect x="451.9" y="301.9" width="3.6" height="78.1" fill="#eb6834"/><rect x="456.0" y="300.8" width="3.6" height="79.2" fill="#eb6834"/><rect x="460.1" y="300.0" width="3.6" height="80.0" fill="#eb6834"/><rect x="464.2" y="299.1" width="3.6" height="80.9" fill="#eb6834"/><rect x="468.4" y="297.9" width="3.6" height="82.1" fill="#eb6834"/><rect x="472.5" y="297.1" width="3.6" height="82.9" fill="#eb6834"/><rect x="476.6" y="296.0" width="3.6" height="84.0" fill="#eb6834"/><rect x="480.8" y="295.6" width="3.6" height="84.4" fill="#eb6834"/><rect x="484.9" y="294.8" width="3.6" height="85.2" fill="#eb6834"/><rect x="489.0" y="294.0" width="3.6" height="86.0" fill="#eb6834"/><rect x="493.1" y="292.8" width="3.6" height="87.2" fill="#eb6834"/><rect x="497.2" y="292.1" width="3.6" height="87.9" fill="#eb6834"/><rect x="501.4" y="291.0" width="3.6" height="89.0" fill="#eb6834"/><rect x="505.5" y="290.3" width="3.6" height="89.7" fill="#eb6834"/><rect x="509.6" y="289.2" width="3.6" height="90.8" fill="#eb6834"/><rect x="513.8" y="288.3" width="3.6" height="91.7" fill="#eb6834"/><rect x="517.9" y="286.6" width="3.6" height="93.4" fill="#eb6834"/><rect x="522.0" y="285.0" width="3.6" height="95.0" fill="#eb6834"/><rect x="526.1" y="283.2" width="3.6" height="96.8" fill="#eb6834"/><rect x="530.2" y="282.1" width="3.6" height="97.9" fill="#eb6834"/><rect x="534.4" y="281.1" width="3.6" height="98.9" fill="#eb6834"/><rect x="538.5" y="280.2" width="3.6" height="99.8" fill="#eb6834"/><rect x="542.6" y="279.3" width="3.6" height="100.7" fill="#eb6834"/><rect x="546.8" y="278.4" width="3.6" height="101.6" fill="#eb6834"/><rect x="550.9" y="277.0" width="3.6" height="103.0" fill="#eb6834"/><rect x="555.0" y="275.7" width="3.6" height="104.3" fill="#eb6834"/><rect x="559.1" y="274.5" width="3.6" height="105.5" fill="#eb6834"/><rect x="563.2" y="273.2" width="3.6" height="106.8" fill="#eb6834"/><rect x="567.4" y="271.8" width="3.6" height="108.2" fill="#eb6834"/><rect x="571.5" y="270.3" width="3.6" height="109.7" fill="#eb6834"/><rect x="575.6" y="268.3" width="3.6" height="111.7" fill="#eb6834"/><rect x="579.8" y="265.6" width="3.6" height="114.4" fill="#eb6834"/><rect x="583.9" y="262.5" width="3.6" height="117.5" fill="#eb6834"/><rect x="588.0" y="259.3" width="3.6" height="120.7" fill="#eb6834"/><rect x="592.1" y="255.9" width="3.6" height="124.1" fill="#eb6834"/><rect x="596.2" y="252.8" width="3.6" height="127.2" fill="#eb6834"/><rect x="600.4" y="249.7" width="3.6" height="130.3" fill="#eb6834"/><rect x="604.5" y="246.5" width="3.6" height="133.5" fill="#eb6834"/><rect x="608.6" y="243.6" width="3.6" height="136.4" fill="#eb6834"/><rect x="612.8" y="240.7" width="3.6" height="139.3" fill="#eb6834"/><rect x="616.9" y="237.8" width="3.6" height="142.2" fill="#eb6834"/><rect x="621.0" y="234.6" width="3.6" height="145.4" fill="#eb6834"/><rect x="625.1" y="231.0" width="3.6" height="149.0" fill="#eb6834"/><rect x="629.2" y="226.6" width="3.6" height="153.4" fill="#eb6834"/><rect x="633.4" y="221.5" width="3.6" height="158.5" fill="#eb6834"/><rect x="637.5" y="216.0" width="3.6" height="164.0" fill="#eb6834"/><rect x="641.6" y="222.2" width="3.6" height="157.8" fill="#eb6834"/><line x1="60" x2="885" y1="380" y2="380" stroke="#c3c2b7"/><text x="60" y="394" font-size="10" fill="#52514e" text-anchor="middle">0%</text><text x="163" y="394" font-size="10" fill="#52514e" text-anchor="middle">25%</text><text x="266" y="394" font-size="10" fill="#52514e" text-anchor="middle">50%</text><text x="369" y="394" font-size="10" fill="#52514e" text-anchor="middle">75%</text><text x="472" y="394" font-size="10" fill="#52514e" text-anchor="middle">100%</text><text x="576" y="394" font-size="10" fill="#52514e" text-anchor="middle">125%</text><text x="642" y="394" font-size="10" fill="#52514e" text-anchor="middle">141%</text><text x="782" y="394" font-size="10" fill="#52514e" text-anchor="middle">175%</text><text x="885" y="394" font-size="10" fill="#52514e" text-anchor="middle">200%</text></svg>