<svg xmlns="http://www.w3.org/2000/svg" viewBox="0 0 900 272" font-family="system-ui,sans-serif"><rect width="900" height="272" fill="#fcfcfb"/><text x="60" y="19" font-size="12" fill="#0b0b0b" font-weight="600">both 6-second histograms together (log count, each to its own scale) — and the colors they pick</text><rect x="97.1" y="188.0" width="1.7" height="0.0" fill="#2a78d6" fill-opacity="0.9"/><rect x="101.2" y="180.8" width="1.7" height="7.2" fill="#2a78d6" fill-opacity="0.9"/><rect x="109.5" y="188.0" width="1.7" height="0.0" fill="#2a78d6" fill-opacity="0.9"/><rect x="117.8" y="188.0" width="1.7" height="0.0" fill="#2a78d6" fill-opacity="0.9"/><rect x="130.1" y="188.0" width="1.7" height="0.0" fill="#2a78d6" fill-opacity="0.9"/><rect x="134.2" y="188.0" width="1.7" height="0.0" fill="#2a78d6" fill-opacity="0.9"/><rect x="146.6" y="188.0" width="1.7" height="0.0" fill="#2a78d6" fill-opacity="0.9"/><rect x="154.9" y="188.0" width="1.7" height="0.0" fill="#2a78d6" fill-opacity="0.9"/><rect x="167.2" y="188.0" width="1.7" height="0.0" fill="#2a78d6" fill-opacity="0.9"/><rect x="171.4" y="188.0" width="1.7" height="0.0" fill="#2a78d6" fill-opacity="0.9"/><rect x="183.8" y="188.0" width="1.7" height="0.0" fill="#2a78d6" fill-opacity="0.9"/><rect x="192.0" y="188.0" width="1.7" height="0.0" fill="#2a78d6" fill-opacity="0.9"/><rect x="204.4" y="188.0" width="1.7" height="0.0" fill="#2a78d6" fill-opacity="0.9"/><rect x="208.5" y="188.0" width="1.7" height="0.0" fill="#2a78d6" fill-opacity="0.9"/><rect x="220.9" y="188.0" width="1.7" height="0.0" fill="#2a78d6" fill-opacity="0.9"/><rect x="229.1" y="188.0" width="1.7" height="0.0" fill="#2a78d6" fill-opacity="0.9"/><rect x="241.5" y="188.0" width="1.7" height="0.0" fill="#2a78d6" fill-opacity="0.9"/><rect x="245.6" y="188.0" width="1.7" height="0.0" fill="#2a78d6" fill-opacity="0.9"/><rect x="262.1" y="188.0" width="1.7" height="0.0" fill="#2a78d6" fill-opacity="0.9"/><rect x="266.2" y="188.0" width="1.7" height="0.0" fill="#2a78d6" fill-opacity="0.9"/><rect x="278.6" y="188.0" width="1.7" height="0.0" fill="#2a78d6" fill-opacity="0.9"/><rect x="282.8" y="188.0" width="1.7" height="0.0" fill="#2a78d6" fill-opacity="0.9"/><rect x="299.2" y="176.6" width="1.7" height="11.4" fill="#2a78d6" fill-opacity="0.9"/><rect x="303.4" y="176.6" width="1.7" height="11.4" fill="#2a78d6" fill-opacity="0.9"/><rect x="315.8" y="176.6" width="1.7" height="11.4" fill="#2a78d6" fill-opacity="0.9"/><rect x="324.0" y="188.0" width="1.7" height="0.0" fill="#2a78d6" fill-opacity="0.9"/><rect x="328.1" y="188.0" width="1.7" height="0.0" fill="#2a78d6" fill-opacity="0.9"/><rect x="332.2" y="188.0" width="1.7" height="0.0" fill="#2a78d6" fill-opacity="0.9"/><rect x="336.4" y="188.0" width="1.7" height="0.0" fill="#2a78d6" fill-opacity="0.9"/><rect x="340.5" y="188.0" width="1.7" height="0.0" fill="#2a78d6" fill-opacity="0.9"/><rect x="348.8" y="180.8" width="1.7" height="7.2" fill="#2a78d6" fill-opacity="0.9"/><rect x="352.9" y="188.0" width="1.7" height="0.0" fill="#2a78d6" fill-opacity="0.9"/><rect x="357.0" y="188.0" width="1.7" height="0.0" fill="#2a78d6" fill-opacity="0.9"/><rect x="361.1" y="176.6" width="1.7" height="11.4" fill="#2a78d6" fill-opacity="0.9"/><rect x="365.2" y="180.8" width="1.7" height="7.2" fill="#2a78d6" fill-opacity="0.9"/><rect x="369.4" y="180.8" width="1.7" height="7.2" fill="#2a78d6" fill-opacity="0.9"/><rect x="373.5" y="171.3" width="1.7" height="16.7" fill="#2a78d6" fill-opacity="0.9"/><rect x="377.6" y="164.1" width="1.7" height="23.9" fill="#2a78d6" fill-opacity="0.9"/><rect x="381.8" y="173.6" width="1.7" height="14.4" fill="#2a78d6" fill-opacity="0.9"/><rect x="385.9" y="167.8" width="1.7" height="20.2" fill="#2a78d6" fill-opacity="0.9"/><rect x="390.0" y="162.2" width="1.7" height="25.8" fill="#2a78d6" fill-opacity="0.9"/><rect x="394.1" y="158.0" width="1.7" height="30.0" fill="#2a78d6" fill-opacity="0.9"/><rect x="398.2" y="156.9" width="1.7" height="31.1" fill="#2a78d6" fill-opacity="0.9"/><rect x="402.4" y="155.9" width="1.7" height="32.1" fill="#2a78d6" fill-opacity="0.9"/><rect x="406.5" y="156.4" width="1.7" height="31.6" fill="#2a78d6" fill-opacity="0.9"/><rect x="410.6" y="155.0" width="1.7" height="33.0" fill="#2a78d6" fill-opacity="0.9"/><rect x="414.8" y="154.1" width="1.7" height="33.9" fill="#2a78d6" fill-opacity="0.9"/><rect x="418.9" y="151.7" width="1.7" height="36.3" fill="#2a78d6" fill-opacity="0.9"/><rect x="423.0" y="152.6" width="1.7" height="35.4" fill="#2a78d6" fill-opacity="0.9"/><rect x="427.1" y="152.3" width="1.7" height="35.7" fill="#2a78d6" fill-opacity="0.9"/><rect x="431.2" y="154.1" width="1.7" height="33.9" fill="#2a78d6" fill-opacity="0.9"/><rect x="435.4" y="149.4" width="1.7" height="38.6" fill="#2a78d6" fill-opacity="0.9"/><rect x="439.5" y="148.0" width="1.7" height="40.0" fill="#2a78d6" fill-opacity="0.9"/><rect x="443.6" y="147.8" width="1.7" height="40.2" fill="#2a78d6" fill-opacity="0.9"/><rect x="447.8" y="146.9" width="1.7" height="41.1" fill="#2a78d6" fill-opacity="0.9"/><rect x="451.9" y="145.4" width="1.7" height="42.6" fill="#2a78d6" fill-opacity="0.9"/><rect x="456.0" y="142.6" width="1.7" height="45.4" fill="#2a78d6" fill-opacity="0.9"/><rect x="460.1" y="143.8" width="1.7" height="44.2" fill="#2a78d6" fill-opacity="0.9"/><rect x="464.2" y="142.7" width="1.7" height="45.3" fill="#2a78d6" fill-opacity="0.9"/><rect x="468.4" y="140.7" width="1.7" height="47.3" fill="#2a78d6" fill-opacity="0.9"/><rect x="472.5" y="141.1" width="1.7" height="46.9" fill="#2a78d6" fill-opacity="0.9"/><rect x="476.6" y="140.2" width="1.7" height="47.8" fill="#2a78d6" fill-opacity="0.9"/><rect x="480.8" y="139.3" width="1.7" height="48.7" fill="#2a78d6" fill-opacity="0.9"/><rect x="484.9" y="137.2" width="1.7" height="50.8" fill="#2a78d6" fill-opacity="0.9"/><rect x="489.0" y="135.4" width="1.7" height="52.6" fill="#2a78d6" fill-opacity="0.9"/><rect x="493.1" y="134.1" width="1.7" height="53.9" fill="#2a78d6" fill-opacity="0.9"/><rect x="497.2" y="133.1" width="1.7" height="54.9" fill="#2a78d6" fill-opacity="0.9"/><rect x="501.4" y="132.7" width="1.7" height="55.3" fill="#2a78d6" fill-opacity="0.9"/><rect x="505.5" y="132.2" width="1.7" height="55.8" fill="#2a78d6" fill-opacity="0.9"/><rect x="509.6" y="129.7" width="1.7" height="58.3" fill="#2a78d6" fill-opacity="0.9"/><rect x="513.8" y="127.6" width="1.7" height="60.4" fill="#2a78d6" fill-opacity="0.9"/><rect x="517.9" y="125.6" width="1.7" height="62.4" fill="#2a78d6" fill-opacity="0.9"/><rect x="522.0" y="124.5" width="1.7" height="63.5" fill="#2a78d6" fill-opacity="0.9"/><rect x="526.1" y="122.6" width="1.7" height="65.4" fill="#2a78d6" fill-opacity="0.9"/><rect x="530.2" y="121.7" width="1.7" height="66.3" fill="#2a78d6" fill-opacity="0.9"/><rect x="534.4" y="121.5" width="1.7" height="66.5" fill="#2a78d6" fill-opacity="0.9"/><rect x="538.5" y="119.7" width="1.7" height="68.3" fill="#2a78d6" fill-opacity="0.9"/><rect x="542.6" y="117.9" width="1.7" height="70.1" fill="#2a78d6" fill-opacity="0.9"/><rect x="546.8" y="116.7" width="1.7" height="71.3" fill="#2a78d6" fill-opacity="0.9"/><rect x="550.9" y="115.6" width="1.7" height="72.4" fill="#2a78d6" fill-opacity="0.9"/><rect x="555.0" y="113.0" width="1.7" height="75.0" fill="#2a78d6" fill-opacity="0.9"/><rect x="559.1" y="111.2" width="1.7" height="76.8" fill="#2a78d6" fill-opacity="0.9"/><rect x="563.2" y="110.0" width="1.7" height="78.0" fill="#2a78d6" fill-opacity="0.9"/><rect x="567.4" y="108.1" width="1.7" height="79.9" fill="#2a78d6" fill-opacity="0.9"/><rect x="571.5" y="106.2" width="1.7" height="81.8" fill="#2a78d6" fill-opacity="0.9"/><rect x="575.6" y="104.1" width="1.7" height="83.9" fill="#2a78d6" fill-opacity="0.9"/><rect x="579.8" y="102.2" width="1.7" height="85.8" fill="#2a78d6" fill-opacity="0.9"/><rect x="583.9" y="99.8" width="1.7" height="88.2" fill="#2a78d6" fill-opacity="0.9"/><rect x="588.0" y="97.9" width="1.7" height="90.1" fill="#2a78d6" fill-opacity="0.9"/><rect x="592.1" y="95.5" width="1.7" height="92.5" fill="#2a78d6" fill-opacity="0.9"/><rect x="596.2" y="92.9" width="1.7" height="95.1" fill="#2a78d6" fill-opacity="0.9"/><rect x="600.4" y="90.1" width="1.7" height="97.9" fill="#2a78d6" fill-opacity="0.9"/><rect x="604.5" y="87.3" width="1.7" height="100.7" fill="#2a78d6" fill-opacity="0.9"/><rect x="608.6" y="83.9" width="1.7" height="104.1" fill="#2a78d6" fill-opacity="0.9"/><rect x="612.8" y="79.4" width="1.7" height="108.6" fill="#2a78d6" fill-opacity="0.9"/><rect x="616.9" y="72.7" width="1.7" height="115.3" fill="#2a78d6" fill-opacity="0.9"/><rect x="621.0" y="65.0" width="1.7" height="123.0" fill="#2a78d6" fill-opacity="0.9"/><rect x="625.1" y="56.2" width="1.7" height="131.8" fill="#2a78d6" fill-opacity="0.9"/><rect x="629.2" y="46.3" width="1.7" height="141.7" fill="#2a78d6" fill-opacity="0.9"/><rect x="633.4" y="35.8" width="1.7" height="152.2" fill="#2a78d6" fill-opacity="0.9"/><rect x="637.5" y="24.0" width="1.7" height="164.0" fill="#2a78d6" fill-opacity="0.9"/><rect x="641.6" y="24.4" width="1.7" height="163.6" fill="#2a78d6" fill-opacity="0.9"/><rect x="330.2" y="153.1" width="1.7" height="34.9" fill="#eb6834" fill-opacity="0.9"/><rect x="334.3" y="157.8" width="1.7" height="30.2" fill="#eb6834" fill-opacity="0.9"/><rect x="338.4" y="155.2" width="1.7" height="32.8" fill="#eb6834" fill-opacity="0.9"/><rect x="342.6" y="154.8" width="1.7" height="33.2" fill="#eb6834" fill-opacity="0.9"/><rect x="346.7" y="157.8" width="1.7" height="30.2" fill="#eb6834" fill-opacity="0.9"/><rect x="350.8" y="152.8" width="1.7" height="35.2" fill="#eb6834" fill-opacity="0.9"/><rect x="354.9" y="151.1" width="1.7" height="36.9" fill="#eb6834" fill-opacity="0.9"/><rect x="359.1" y="156.2" width="1.7" height="31.8" fill="#eb6834" fill-opacity="0.9"/><rect x="363.2" y="153.1" width="1.7" height="34.9" fill="#eb6834" fill-opacity="0.9"/><rect x="367.3" y="155.2" width="1.7" height="32.8" fill="#eb6834" fill-opacity="0.9"/><rect x="371.4" y="150.5" width="1.7" height="37.5" fill="#eb6834" fill-opacity="0.9"/><rect x="375.6" y="143.6" width="1.7" height="44.4" fill="#eb6834" fill-opacity="0.9"/><rect x="379.7" y="145.9" width="1.7" height="42.1" fill="#eb6834" fill-opacity="0.9"/><rect x="383.8" y="147.7" width="1.7" height="40.3" fill="#eb6834" fill-opacity="0.9"/><rect x="387.9" y="147.5" width="1.7" height="40.5" fill="#eb6834" fill-opacity="0.9"/><rect x="392.1" y="146.5" width="1.7" height="41.5" fill="#eb6834" fill-opacity="0.9"/><rect x="396.2" y="150.5" width="1.7" height="37.5" fill="#eb6834" fill-opacity="0.9"/><rect x="400.3" y="148.2" width="1.7" height="39.8" fill="#eb6834" fill-opacity="0.9"/><rect x="404.4" y="150.5" width="1.7" height="37.5" fill="#eb6834" fill-opacity="0.9"/><rect x="408.6" y="149.2" width="1.7" height="38.8" fill="#eb6834" fill-opacity="0.9"/><rect x="412.7" y="148.0" width="1.7" height="40.0" fill="#eb6834" fill-opacity="0.9"/><rect x="416.8" y="148.2" width="1.7" height="39.8" fill="#eb6834" fill-opacity="0.9"/><rect x="420.9" y="149.7" width="1.7" height="38.3" fill="#eb6834" fill-opacity="0.9"/><rect x="425.1" y="143.7" width="1.7" height="44.3" fill="#eb6834" fill-opacity="0.9"/><rect x="429.2" y="144.8" width="1.7" height="43.2" fill="#eb6834" fill-opacity="0.9"/><rect x="433.3" y="143.3" width="1.7" height="44.7" fill="#eb6834" fill-opacity="0.9"/><rect x="437.4" y="141.1" width="1.7" height="46.9" fill="#eb6834" fill-opacity="0.9"/><rect x="441.6" y="138.2" width="1.7" height="49.8" fill="#eb6834" fill-opacity="0.9"/><rect x="445.7" y="136.1" width="1.7" height="51.9" fill="#eb6834" fill-opacity="0.9"/><rect x="449.8" y="134.5" width="1.7" height="53.5" fill="#eb6834" fill-opacity="0.9"/><rect x="453.9" y="134.8" width="1.7" height="53.2" fill="#eb6834" fill-opacity="0.9"/><rect x="458.1" y="134.1" width="1.7" height="53.9" fill="#eb6834" fill-opacity="0.9"/><rect x="462.2" y="133.6" width="1.7" height="54.4" fill="#eb6834" fill-opacity="0.9"/><rect x="466.3" y="132.4" width="1.7" height="55.6" fill="#eb6834" fill-opacity="0.9"/><rect x="470.4" y="132.7" width="1.7" height="55.3" fill="#eb6834" fill-opacity="0.9"/><rect x="474.6" y="128.2" width="1.7" height="59.8" fill="#eb6834" fill-opacity="0.9"/><rect x="478.7" y="126.9" width="1.7" height="61.1" fill="#eb6834" fill-opacity="0.9"/><rect x="482.8" y="128.0" width="1.7" height="60.0" fill="#eb6834" fill-opacity="0.9"/><rect x="486.9" y="126.9" width="1.7" height="61.1" fill="#eb6834" fill-opacity="0.9"/><rect x="491.1" y="125.8" width="1.7" height="62.2" fill="#eb6834" fill-opacity="0.9"/><rect x="495.2" y="122.9" width="1.7" height="65.1" fill="#eb6834" fill-opacity="0.9"/><rect x="499.3" y="118.5" width="1.7" height="69.5" fill="#eb6834" fill-opacity="0.9"/><rect x="503.4" y="118.7" width="1.7" height="69.3" fill="#eb6834" fill-opacity="0.9"/><rect x="507.6" y="117.8" width="1.7" height="70.2" fill="#eb6834" fill-opacity="0.9"/><rect x="511.7" y="116.4" width="1.7" height="71.6" fill="#eb6834" fill-opacity="0.9"/><rect x="515.8" y="116.1" width="1.7" height="71.9" fill="#eb6834" fill-opacity="0.9"/><rect x="519.9" y="114.7" width="1.7" height="73.3" fill="#eb6834" fill-opacity="0.9"/><rect x="524.1" y="112.4" width="1.7" height="75.6" fill="#eb6834" fill-opacity="0.9"/><rect x="528.2" y="110.9" width="1.7" height="77.1" fill="#eb6834" fill-opacity="0.9"/><rect x="532.3" y="108.6" width="1.7" height="79.4" fill="#eb6834" fill-opacity="0.9"/><rect x="536.4" y="106.2" width="1.7" height="81.8" fill="#eb6834" fill-opacity="0.9"/><rect x="540.6" y="103.9" width="1.7" height="84.1" fill="#eb6834" fill-opacity="0.9"/><rect x="544.7" y="103.3" width="1.7" height="84.7" fill="#eb6834" fill-opacity="0.9"/><rect x="548.8" y="101.6" width="1.7" height="86.4" fill="#eb6834" fill-opacity="0.9"/><rect x="552.9" y="98.7" width="1.7" height="89.3" fill="#eb6834" fill-opacity="0.9"/><rect x="557.1" y="96.7" width="1.7" height="91.3" fill="#eb6834" fill-opacity="0.9"/><rect x="561.2" y="94.8" width="1.7" height="93.2" fill="#eb6834" fill-opacity="0.9"/><rect x="565.3" y="92.5" width="1.7" height="95.5" fill="#eb6834" fill-opacity="0.9"/><rect x="569.4" y="90.8" width="1.7" height="97.2" fill="#eb6834" fill-opacity="0.9"/><rect x="573.6" y="88.3" width="1.7" height="99.7" fill="#eb6834" fill-opacity="0.9"/><rect x="577.7" y="86.1" width="1.7" height="101.9" fill="#eb6834" fill-opacity="0.9"/><rect x="581.8" y="84.0" width="1.7" height="104.0" fill="#eb6834" fill-opacity="0.9"/><rect x="585.9" y="81.7" width="1.7" height="106.3" fill="#eb6834" fill-opacity="0.9"/><rect x="590.1" y="79.5" width="1.7" height="108.5" fill="#eb6834" fill-opacity="0.9"/><rect x="594.2" y="77.3" width="1.7" height="110.7" fill="#eb6834" fill-opacity="0.9"/><rect x="598.3" y="75.2" width="1.7" height="112.8" fill="#eb6834" fill-opacity="0.9"/><rect x="602.4" y="72.6" width="1.7" height="115.4" fill="#eb6834" fill-opacity="0.9"/><rect x="606.6" y="69.9" width="1.7" height="118.1" fill="#eb6834" fill-opacity="0.9"/><rect x="610.7" y="66.0" width="1.7" height="122.0" fill="#eb6834" fill-opacity="0.9"/><rect x="614.8" y="61.4" width="1.7" height="126.6" fill="#eb6834" fill-opacity="0.9"/><rect x="618.9" y="56.5" width="1.7" height="131.5" fill="#eb6834" fill-opacity="0.9"/><rect x="623.1" y="51.1" width="1.7" height="136.9" fill="#eb6834" fill-opacity="0.9"/><rect x="627.2" y="45.2" width="1.7" height="142.8" fill="#eb6834" fill-opacity="0.9"/><rect x="631.3" y="38.9" width="1.7" height="149.1" fill="#eb6834" fill-opacity="0.9"/><rect x="635.4" y="31.9" width="1.7" height="156.1" fill="#eb6834" fill-opacity="0.9"/><rect x="639.6" y="24.0" width="1.7" height="164.0" fill="#eb6834" fill-opacity="0.9"/><rect x="643.7" y="24.9" width="1.7" height="163.1" fill="#eb6834" fill-opacity="0.9"/><line x1="60" x2="885" y1="188" y2="188" stroke="#c3c2b7"/><text x="60" y="220" font-size="10" fill="#52514e" text-anchor="middle">0%</text><text x="163" y="220" font-size="10" fill="#52514e" text-anchor="middle">25%</text><text x="266" y="220" font-size="10" fill="#52514e" text-anchor="middle">50%</text><text x="369" y="220" font-size="10" fill="#52514e" text-anchor="middle">75%</text><text x="472" y="220" font-size="10" fill="#52514e" text-anchor="middle">100%</text><text x="576" y="220" font-size="10" fill="#52514e" text-anchor="middle">125%</text><text x="642" y="220" font-size="10" fill="#52514e" text-anchor="middle">141%</text><text x="782" y="220" font-size="10" fill="#52514e" text-anchor="middle">175%</text><text x="885" y="220" font-size="10" fill="#52514e" text-anchor="middle">200%</text><rect x="60.0" y="228" width="4.12" height="14" fill="#0ca30c"/><rect x="64.1" y="228" width="4.12" height="14" fill="#0ca30c"/><rect x="68.2" y="228" width="4.12" height="14" fill="#0ca30c"/><rect x="72.4" y="228" width="4.12" height="14" fill="#0ca30c"/><rect x="76.5" y="228" width="4.12" height="14" fill="#0ca30c"/><rect x="80.6" y="228" width="4.12" height="14" fill="#0ca30c"/><rect x="84.8" y="228" width="4.12" height="14" fill="#0ca30c"/><rect x="88.9" y="228" width="4.12" height="14" fill="#0ca30c"/><rect x="93.0" y="228" width="4.12" height="14" fill="#0ca30c"/><rect x="97.1" y="228" width="4.12" height="14" fill="#0ca30c"/><rect x="101.2" y="228" width="4.12" height="14" fill="#0ca30c"/><rect x="105.4" y="228" width="4.12" height="14" fill="#0ca30c"/><rect x="109.5" y="228" width="4.12" height="14" fill="#0ca30c"/><rect x="113.6" y="228" width="4.12" height="14" fill="#0ca30c"/><rect x="117.8" y="228" width="4.12" height="14" fill="#0ca30c"/><rect x="121.9" y="228" width="4.12" height="14" fill="#0ca30c"/><rect x="126.0" y="228" width="4.12" height="14" fill="#0ca30c"/><rect x="130.1" y="228" width="4.12" height="14" fill="#0ca30c"/><rect x="134.2" y="228" width="4.12" height="14" fill="#0ca30c"/><rect x="138.4" y="228" width="4.12" height="14" fill="#0ca30c"/><rect x="142.5" y="228" width="4.12" height="14" fill="#0ca30c"/><rect x="146.6" y="228" width="4.12" height="14" fill="#0ca30c"/><rect x="150.8" y="228" width="4.12" height="14" fill="#0ca30c"/><rect x="154.9" y="228" width="4.12" height="14" fill="#0ca30c"/><rect x="159.0" y="228" width="4.12" height="14" fill="#0ca30c"/><rect x="163.1" y="228" width="4.12" height="14" fill="#0ca30c"/><rect x="167.2" y="228" width="4.12" height="14" fill="#0ca30c"/><rect x="171.4" y="228" width="4.12" height="14" fill="#0ca30c"/><rect x="175.5" y="228" width="4.12" height="14" fill="#0ca30c"/><rect x="179.6" y="228" width="4.12" height="14" fill="#0ca30c"/><rect x="183.8" y="228" width="4.12" height="14" fill="#0ca30c"/><rect x="187.9" y="228" width="4.12" height="14" fill="#0ca30c"/><rect x="192.0" y="228" width="4.12" height="14" fill="#0ca30c"/><rect x="196.1" y="228" width="4.12" height="14" fill="#0ca30c"/><rect x="200.2" y="228" width="4.12" height="14" fill="#0ca30c"/><rect x="204.4" y="228" width="4.12" height="14" fill="#0ca30c"/><rect x="208.5" y="228" width="4.12" height="14" fill="#0ca30c"/><rect x="212.6" y="228" width="4.12" height="14" fill="#0ca30c"/><rect x="216.8" y="228" width="4.12" height="14" fill="#0ca30c"/><rect x="220.9" y="228" width="4.12" height="14" fill="#0ca30c"/><rect x="225.0" y="228" width="4.12" height="14" fill="#0ca30c"/><rect x="229.1" y="228" width="4.12" height="14" fill="#0ca30c"/><rect x="233.2" y="228" width="4.12" height="14" fill="#0ca30c"/><rect x="237.4" y="228" width="4.12" height="14" fill="#0ca30c"/><rect x="241.5" y="228" width="4.12" height="14" fill="#0ca30c"/><rect x="245.6" y="228" width="4.12" height="14" fill="#0ca30c"/><rect x="249.8" y="228" width="4.12" height="14" fill="#0ca30c"/><rect x="253.9" y="228" width="4.12" height="14" fill="#0ca30c"/><rect x="258.0" y="228" width="4.12" height="14" fill="#0ca30c"/><rect x="262.1" y="228" width="4.12" height="14" fill="#0ca30c"/><rect x="266.2" y="228" width="4.12" height="14" fill="#0ca30c"/><rect x="270.4" y="228" width="4.12" height="14" fill="#0ca30c"/><rect x="274.5" y="228" width="4.12" height="14" fill="#0ca30c"/><rect x="278.6" y="228" width="4.12" height="14" fill="#0ca30c"/><rect x="282.8" y="228" width="4.12" height="14" fill="#0ca30c"/><rect x="286.9" y="228" width="4.12" height="14" fill="#0ca30c"/><rect x="291.0" y="228" width="4.12" height="14" fill="#0ca30c"/><rect x="295.1" y="228" width="4.12" height="14" fill="#0ca30c"/><rect x="299.2" y="228" width="4.12" height="14" fill="#0ca30c"/><rect x="303.4" y="228" width="4.12" height="14" fill="#0ca30c"/><rect x="307.5" y="228" width="4.12" height="14" fill="#0ca30c"/><rect x="311.6" y="228" width="4.12" height="14" fill="#0ca30c"/><rect x="315.8" y="228" width="4.12" height="14" fill="#0ca30c"/><rect x="319.9" y="228" width="4.12" height="14" fill="#0ca30c"/><rect x="324.0" y="228" width="4.12" height="14" fill="#0ca30c"/><rect x="328.1" y="228" width="4.12" height="14" fill="#0ca30c"/><rect x="332.2" y="228" width="4.12" height="14" fill="#0ca30c"/><rect x="336.4" y="228" width="4.12" height="14" fill="#0ca30c"/><rect x="340.5" y="228" width="4.12" height="14" fill="#0ca30c"/><rect x="344.6" y="228" width="4.12" height="14" fill="#0ca30c"/><rect x="348.8" y="228" width="4.12" height="14" fill="#0ca30c"/><rect x="352.9" y="228" width="4.12" height="14" fill="#0ca30c"/><rect x="357.0" y="228" width="4.12" height="14" fill="#0ca30c"/><rect x="361.1" y="228" width="4.12" height="14" fill="#0ca30c"/><rect x="365.2" y="228" width="4.12" height="14" fill="#0ca30c"/><rect x="369.4" y="228" width="4.12" height="14" fill="#0ca30c"/><rect x="373.5" y="228" width="4.12" height="14" fill="#0ca30c"/><rect x="377.6" y="228" width="4.12" height="14" fill="#0ca30c"/><rect x="381.8" y="228" width="4.12" height="14" fill="#0ca30c"/><rect x="385.9" y="228" width="4.12" height="14" fill="#0ca30c"/><rect x="390.0" y="228" width="4.12" height="14" fill="#0ca30c"/><rect x="394.1" y="228" width="4.12" height="14" fill="#0ca30c"/><rect x="398.2" y="228" width="4.12" height="14" fill="#0ca30c"/><rect x="402.4" y="228" width="4.12" height="14" fill="#0ca30c"/><rect x="406.5" y="228" width="4.12" height="14" fill="#0ca30c"/><rect x="410.6" y="228" width="4.12" height="14" fill="#0ca30c"/><rect x="414.8" y="228" width="4.12" height="14" fill="#0ca30c"/><rect x="418.9" y="228" width="4.12" height="14" fill="#0ca30c"/><rect x="423.0" y="228" width="4.12" height="14" fill="#0ca30c"/><rect x="427.1" y="228" width="4.12" height="14" fill="#0ca30c"/><rect x="431.2" y="228" width="4.12" height="14" fill="#eda100"/><rect x="435.4" y="228" width="4.12" height="14" fill="#eda100"/><rect x="439.5" y="228" width="4.12" height="14" fill="#eda100"/><rect x="443.6" y="228" width="4.12" height="14" fill="#eda100"/><rect x="447.8" y="228" width="4.12" height="14" fill="#eda100"/><rect x="451.9" y="228" width="4.12" height="14" fill="#eda100"/><rect x="456.0" y="228" width="4.12" height="14" fill="#eda100"/><rect x="460.1" y="228" width="4.12" height="14" fill="#eda100"/><rect x="464.2" y="228" width="4.12" height="14" fill="#eda100"/><rect x="468.4" y="228" width="4.12" height="14" fill="#eda100"/><rect x="472.5" y="228" width="4.12" height="14" fill="#eda100"/><rect x="476.6" y="228" width="4.12" height="14" fill="#eda100"/><rect x="480.8" y="228" width="4.12" height="14" fill="#eda100"/><rect x="484.9" y="228" width="4.12" height="14" fill="#eda100"/><rect x="489.0" y="228" width="4.12" height="14" fill="#eda100"/><rect x="493.1" y="228" width="4.12" height="14" fill="#eda100"/><rect x="497.2" y="228" width="4.12" height="14" fill="#eda100"/><rect x="501.4" y="228" width="4.12" height="14" fill="#eda100"/><rect x="505.5" y="228" width="4.12" height="14" fill="#eda100"/><rect x="509.6" y="228" width="4.12" height="14" fill="#eda100"/><rect x="513.8" y="228" width="4.12" height="14" fill="#eda100"/><rect x="517.9" y="228" width="4.12" height="14" fill="#eda100"/><rect x="522.0" y="228" width="4.12" height="14" fill="#eda100"/><rect x="526.1" y="228" width="4.12" height="14" fill="#eda100"/><rect x="530.2" y="228" width="4.12" height="14" fill="#eda100"/><rect x="534.4" y="228" width="4.12" height="14" fill="#eda100"/><rect x="538.5" y="228" width="4.12" height="14" fill="#eda100"/><rect x="542.6" y="228" width="4.12" height="14" fill="#eda100"/><rect x="546.8" y="228" width="4.12" height="14" fill="#eda100"/><rect x="550.9" y="228" width="4.12" height="14" fill="#eda100"/><rect x="555.0" y="228" width="4.12" height="14" fill="#eda100"/><rect x="559.1" y="228" width="4.12" height="14" fill="#eda100"/><rect x="563.2" y="228" width="4.12" height="14" fill="#eda100"/><rect x="567.4" y="228" width="4.12" height="14" fill="#eda100"/><rect x="571.5" y="228" width="4.12" height="14" fill="#eda100"/><rect x="575.6" y="228" width="4.12" height="14" fill="#d03b3b"/><rect x="579.8" y="228" width="4.12" height="14" fill="#d03b3b"/><rect x="583.9" y="228" width="4.12" height="14" fill="#d03b3b"/><rect x="588.0" y="228" width="4.12" height="14" fill="#d03b3b"/><rect x="592.1" y="228" width="4.12" height="14" fill="#d03b3b"/><rect x="596.2" y="228" width="4.12" height="14" fill="#d03b3b"/><rect x="600.4" y="228" width="4.12" height="14" fill="#d03b3b"/><rect x="604.5" y="228" width="4.12" height="14" fill="#d03b3b"/><rect x="608.6" y="228" width="4.12" height="14" fill="#d03b3b"/><rect x="612.8" y="228" width="4.12" height="14" fill="#d03b3b"/><rect x="616.9" y="228" width="4.12" height="14" fill="#d03b3b"/><rect x="621.0" y="228" width="4.12" height="14" fill="#d03b3b"/><rect x="625.1" y="228" width="4.12" height="14" fill="#d03b3b"/><rect x="629.2" y="228" width="4.12" height="14" fill="#d03b3b"/><rect x="633.4" y="228" width="4.12" height="14" fill="#d03b3b"/><rect x="637.5" y="228" width="4.12" height="14" fill="#d03b3b"/><rect x="641.6" y="228" width="4.12" height="14" fill="#d03b3b"/><rect x="645.8" y="228" width="4.12" height="14" fill="#d03b3b"/><rect x="649.9" y="228" width="4.12" height="14" fill="#d03b3b"/><rect x="654.0" y="228" width="4.12" height="14" fill="#d03b3b"/><rect x="658.1" y="228" width="4.12" height="14" fill="#d03b3b"/><rect x="662.2" y="228" width="4.12" height="14" fill="#d03b3b"/><rect x="666.4" y="228" width="4.12" height="14" fill="#d03b3b"/><rect x="670.5" y="228" width="4.12" height="14" fill="#d03b3b"/><rect x="674.6" y="228" width="4.12" height="14" fill="#d03b3b"/><rect x="678.8" y="228" width="4.12" height="14" fill="#d03b3b"/><rect x="682.9" y="228" width="4.12" height="14" fill="#d03b3b"/><rect x="687.0" y="228" width="4.12" height="14" fill="#d03b3b"/><rect x="691.1" y="228" width="4.12" height="14" fill="#d03b3b"/><rect x="695.2" y="228" width="4.12" height="14" fill="#d03b3b"/><rect x="699.4" y="228" width="4.12" height="14" fill="#d03b3b"/><rect x="703.5" y="228" width="4.12" height="14" fill="#d03b3b"/><rect x="707.6" y="228" width="4.12" height="14" fill="#d03b3b"/><rect x="711.8" y="228" width="4.12" height="14" fill="#d03b3b"/><rect x="715.9" y="228" width="4.12" height="14" fill="#d03b3b"/><rect x="720.0" y="228" width="4.12" height="14" fill="#d03b3b"/><rect x="724.1" y="228" width="4.12" height="14" fill="#d03b3b"/><rect x="728.2" y="228" width="4.12" height="14" fill="#d03b3b"/><rect x="732.4" y="228" width="4.12" height="14" fill="#d03b3b"/><rect x="736.5" y="228" width="4.12" height="14" fill="#d03b3b"/><rect x="740.6" y="228" width="4.12" height="14" fill="#d03b3b"/><rect x="744.8" y="228" width="4.12" height="14" fill="#d03b3b"/><rect x="748.9" y="228" width="4.12" height="14" fill="#d03b3b"/><rect x="753.0" y="228" width="4.12" height="14" fill="#d03b3b"/><rect x="757.1" y="228" width="4.12" height="14" fill="#d03b3b"/><rect x="761.2" y="228" width="4.12" height="14" fill="#d03b3b"/><rect x="765.4" y="228" width="4.12" height="14" fill="#d03b3b"/><rect x="769.5" y="228" width="4.12" height="14" fill="#d03b3b"/><rect x="773.6" y="228" width="4.12" height="14" fill="#d03b3b"/><rect x="777.8" y="228" width="4.12" height="14" fill="#d03b3b"/><rect x="781.9" y="228" width="4.12" height="14" fill="#d03b3b"/><rect x="786.0" y="228" width="4.12" height="14" fill="#d03b3b"/><rect x="790.1" y="228" width="4.12" height="14" fill="#d03b3b"/><rect x="794.2" y="228" width="4.12" height="14" fill="#d03b3b"/><rect x="798.4" y="228" width="4.12" height="14" fill="#d03b3b"/><rect x="802.5" y="228" width="4.12" height="14" fill="#d03b3b"/><rect x="806.6" y="228" width="4.12" height="14" fill="#d03b3b"/><rect x="810.8" y="228" width="4.12" height="14" fill="#d03b3b"/><rect x="814.9" y="228" width="4.12" height="14" fill="#d03b3b"/><rect x="819.0" y="228" width="4.12" height="14" fill="#d03b3b"/><rect x="823.1" y="228" width="4.12" height="14" fill="#d03b3b"/><rect x="827.2" y="228" width="4.12" height="14" fill="#d03b3b"/><rect x="831.4" y="228" width="4.12" height="14" fill="#d03b3b"/><rect x="835.5" y="228" width="4.12" height="14" fill="#d03b3b"/><rect x="839.6" y="228" width="4.12" height="14" fill="#d03b3b"/><rect x="843.8" y="228" width="4.12" height="14" fill="#d03b3b"/><rect x="847.9" y="228" width="4.12" height="14" fill="#d03b3b"/><rect x="852.0" y="228" width="4.12" height="14" fill="#d03b3b"/><rect x="856.1" y="228" width="4.12" height="14" fill="#d03b3b"/><rect x="860.2" y="228" width="4.12" height="14" fill="#d03b3b"/><rect x="864.4" y="228" width="4.12" height="14" fill="#d03b3b"/><rect x="868.5" y="228" width="4.12" height="14" fill="#d03b3b"/><rect x="872.6" y="228" width="4.12" height="14" fill="#d03b3b"/><rect x="876.8" y="228" width="4.12" height="14" fill="#d03b3b"/><rect x="880.9" y="228" width="4.12" height="14" fill="#d03b3b"/><text x="60" y="256" font-size="11" fill="#0b0b0b">green &lt;90%: this record, genuinely matched &#160;·&#160; amber 90–125%: correlated but buried/shallow — believe the confidence number &#160;·&#160; red ≥125%: no evidence</text><text x="60" y="270" font-size="10" fill="#52514e">blue = 007 A (solo)  ·  orange = 066 A (buried entrance)</text></svg>